<?xml version="1.0" standalone="no"?>
<!DOCTYPE svg PUBLIC "-//W3C//DTD SVG 20010904//EN"
 "http://www.w3.org/TR/2001/REC-SVG-20010904/DTD/svg10.dtd">
<svg version="1.0" xmlns="http://www.w3.org/2000/svg"
 width="512.000000pt" height="512.000000pt" viewBox="0 0 512.000000 512.000000"
 preserveAspectRatio="xMidYMid meet">

<g transform="translate(0.000000,512.000000) scale(0.100000,-0.100000)"
fill="#000000" stroke="none">
<path d="M2260 4784 c0 -17 36 -240 45 -281 l5 -23 250 0 250 0 5 23 c9 41 45
264 45 281 0 14 -29 16 -300 16 -271 0 -300 -2 -300 -16z"/>
<path d="M2105 4295 c-16 -15 -25 -36 -25 -55 0 -19 9 -40 25 -55 l24 -25 431
0 431 0 24 25 c16 15 25 36 25 55 0 19 -9 40 -25 55 l-24 25 -431 0 -431 0
-24 -25z"/>
<path d="M2320 3763 c0 -317 -21 -439 -104 -615 -68 -143 -192 -294 -316 -385
-31 -22 -211 -129 -400 -238 -395 -226 -448 -261 -546 -360 -407 -410 -418
-1068 -25 -1497 115 -125 279 -232 443 -288 170 -57 122 -55 1198 -55 l995 0
100 28 c244 69 450 206 592 395 182 242 257 542 207 833 -39 228 -143 429
-303 590 -98 97 -134 121 -528 347 -183 105 -360 210 -395 233 -190 129 -342
353 -408 600 -21 75 -23 113 -27 367 l-5 282 -239 0 -239 0 0 -237z m467
-1378 c511 -67 899 -322 1019 -670 24 -69 28 -95 28 -195 0 -100 -4 -126 -28
-195 -101 -292 -401 -527 -803 -629 -292 -74 -600 -73 -895 3 -129 34 -187 55
-300 112 -246 122 -427 311 -496 517 -22 65 -26 95 -26 192 0 98 4 127 27 196
151 455 813 755 1474 669z"/>
<path d="M2367 2230 c-412 -52 -745 -238 -871 -487 -196 -387 138 -791 756
-915 95 -19 144 -22 313 -22 177 0 214 3 327 27 420 89 703 300 774 580 21 78
14 190 -15 268 -97 257 -383 452 -778 529 -121 24 -391 35 -506 20z"/>
</g>
</svg>
